%TF.GenerationSoftware,Altium Limited,Altium Designer,24.7.2 (38)*%
G04 Layer_Color=16711935*
%FSLAX45Y45*%
%MOMM*%
%TF.SameCoordinates,425E0F67-3F04-4F15-B929-D04D496562EE*%
%TF.FilePolarity,Negative*%
%TF.FileFunction,Soldermask,Bot*%
%TF.Part,Single*%
G01*
G75*
%TA.AperFunction,ComponentPad*%
%ADD29C,1.78000*%
%ADD31R,1.25000X1.25000*%
%ADD32C,1.25000*%
%ADD33C,1.52400*%
%ADD55C,1.65320*%
%ADD56C,4.20320*%
%ADD57C,1.85320*%
%ADD58C,1.20320*%
%TA.AperFunction,ViaPad*%
%ADD59C,1.47320*%
D29*
X4768400Y4089400D02*
D03*
D31*
X592200Y2997200D02*
D03*
D32*
X1592200D02*
D03*
D33*
X2463800Y3530600D02*
D03*
Y3784600D02*
D03*
Y965200D02*
D03*
Y1219200D02*
D03*
D55*
X4665600Y1520000D02*
D03*
Y1020000D02*
D03*
D56*
X1371600Y5003800D02*
D03*
Y2413000D02*
D03*
D57*
X2133600Y4622800D02*
D03*
Y4114800D02*
D03*
Y2032000D02*
D03*
Y1524000D02*
D03*
D58*
X4826170Y5586824D02*
D03*
X228770Y5612224D02*
D03*
X4826170Y252824D02*
D03*
X254170D02*
D03*
D59*
X3835400Y2870200D02*
D03*
X2540000Y1981200D02*
D03*
X3479800Y4826000D02*
D03*
X3683000D02*
D03*
X3886200D02*
D03*
Y4622800D02*
D03*
X3683000D02*
D03*
X3479800D02*
D03*
X4318000Y1397000D02*
D03*
X3035300Y1371600D02*
D03*
X2946400Y4318000D02*
D03*
X2438400D02*
D03*
%TF.MD5,b9f833c4919b9a37bb460bea163ee743*%
M02*
