%TF.GenerationSoftware,Altium Limited,Altium Designer,24.7.2 (38)*%
G04 Layer_Color=0*
%FSLAX45Y45*%
%MOMM*%
%TF.SameCoordinates,425E0F67-3F04-4F15-B929-D04D496562EE*%
%TF.FilePolarity,Positive*%
%TF.FileFunction,Plated,1,2,PTH,Drill*%
%TF.Part,Single*%
G01*
G75*
%TA.AperFunction,ComponentDrill*%
%ADD62C,0.85000*%
%ADD63O,1.30000X0.60000*%
%ADD64C,0.75000*%
%ADD65C,1.01600*%
%ADD66C,3.00000*%
%ADD67C,1.10000*%
%ADD68C,3.20000*%
%TA.AperFunction,ViaDrill,NotFilled*%
%ADD69C,0.71120*%
D62*
X4665600Y1520000D02*
D03*
Y1020000D02*
D03*
D63*
X4935600Y1620000D02*
D03*
Y920000D02*
D03*
D64*
X592200Y2997200D02*
D03*
X1592200D02*
D03*
D65*
X2463800Y3530600D02*
D03*
Y3784600D02*
D03*
Y965200D02*
D03*
Y1219200D02*
D03*
D66*
X1371600Y5003800D02*
D03*
Y2413000D02*
D03*
D67*
X2133600Y4622800D02*
D03*
Y4114800D02*
D03*
Y2032000D02*
D03*
Y1524000D02*
D03*
D68*
X4826170Y5586824D02*
D03*
X228770Y5612224D02*
D03*
X4826170Y252824D02*
D03*
X254170D02*
D03*
D69*
X3835400Y2870200D02*
D03*
X2540000Y1981200D02*
D03*
X3479800Y4826000D02*
D03*
X3683000D02*
D03*
X3886200D02*
D03*
Y4622800D02*
D03*
X3683000D02*
D03*
X3479800D02*
D03*
X4318000Y1397000D02*
D03*
X3035300Y1371600D02*
D03*
X2946400Y4318000D02*
D03*
X2438400D02*
D03*
%TF.MD5,e93ebfb396d558aca78914021345de5d*%
M02*
