%TF.GenerationSoftware,Altium Limited,Altium Designer,24.7.2 (38)*%
G04 Layer_Color=65535*
%FSLAX45Y45*%
%MOMM*%
%TF.SameCoordinates,425E0F67-3F04-4F15-B929-D04D496562EE*%
%TF.FilePolarity,Positive*%
%TF.FileFunction,Legend,Top*%
%TF.Part,Single*%
G01*
G75*
%TA.AperFunction,NonConductor*%
%ADD38C,0.25400*%
%ADD39C,0.25000*%
%ADD40C,0.50800*%
%ADD41C,0.20000*%
%ADD42C,0.40000*%
%ADD43C,0.15240*%
%ADD44C,0.12700*%
%ADD45R,0.77780X2.60000*%
D38*
X2514600Y5384800D02*
Y5511800D01*
Y5384800D02*
X2819400D01*
Y5588000D01*
X2514600D02*
X2819400D01*
X2514600Y5511800D02*
Y5588000D01*
X0Y0D02*
Y5842000D01*
X5080000D01*
Y0D02*
Y5842000D01*
X0Y0D02*
X5080000D01*
X19100Y5318800D02*
X1129100D01*
X19100Y3408800D02*
Y5318800D01*
Y3408800D02*
X2239100D01*
X2239100D02*
Y5318800D01*
X1129100D02*
X2239100D01*
X19100Y2728000D02*
X1129100D01*
X19100Y818000D02*
Y2728000D01*
Y818000D02*
X2239100D01*
X2239100D02*
Y2728000D01*
X1129100D02*
X2239100D01*
X4626000Y5388000D02*
X5026000D01*
X4626000D02*
Y5788000D01*
X5026000Y5388000D02*
Y5788000D01*
X4626000D02*
X5026000D01*
X28600Y5413400D02*
X428600D01*
X28600D02*
Y5813400D01*
X428600Y5413400D02*
Y5813400D01*
X28600D02*
X428600D01*
X4626000Y54000D02*
X5026000D01*
X4626000D02*
Y454000D01*
X5026000Y54000D02*
Y454000D01*
X4626000D02*
X5026000D01*
X54000Y54000D02*
X454000D01*
X54000D02*
Y454000D01*
X454000Y54000D02*
Y454000D01*
X54000D02*
X454000D01*
X3420511Y5731895D02*
X3403583Y5748823D01*
X3369728D01*
X3352800Y5731895D01*
Y5664183D01*
X3369728Y5647256D01*
X3403583D01*
X3420511Y5664183D01*
X3454367Y5748823D02*
Y5647256D01*
Y5698039D01*
X3471295Y5714967D01*
X3505151D01*
X3522079Y5698039D01*
Y5647256D01*
X3572862Y5714967D02*
X3606718D01*
X3623646Y5698039D01*
Y5647256D01*
X3572862D01*
X3555934Y5664183D01*
X3572862Y5681111D01*
X3623646D01*
X3657502Y5714967D02*
Y5647256D01*
Y5681111D01*
X3674430Y5698039D01*
X3691357Y5714967D01*
X3708285D01*
X3792925Y5613400D02*
X3809852D01*
X3826780Y5630328D01*
Y5714967D01*
X3775997D01*
X3759069Y5698039D01*
Y5664183D01*
X3775997Y5647256D01*
X3826780D01*
X3860636D02*
X3894492D01*
X3877564D01*
Y5714967D01*
X3860636D01*
X3945276Y5647256D02*
Y5714967D01*
X3996059D01*
X4012987Y5698039D01*
Y5647256D01*
X4080698Y5613400D02*
X4097626D01*
X4114554Y5630328D01*
Y5714967D01*
X4063771D01*
X4046843Y5698039D01*
Y5664183D01*
X4063771Y5647256D01*
X4114554D01*
X2743200Y529952D02*
Y631519D01*
X2777056Y597663D01*
X2810911Y631519D01*
Y529952D01*
X2844767Y597663D02*
Y546880D01*
X2861695Y529952D01*
X2912479D01*
Y513024D01*
X2895551Y496096D01*
X2878623D01*
X2912479Y529952D02*
Y597663D01*
X3115613Y614591D02*
X3098685Y631519D01*
X3064830D01*
X3047902Y614591D01*
Y546880D01*
X3064830Y529952D01*
X3098685D01*
X3115613Y546880D01*
X3166397Y529952D02*
X3200252D01*
X3217180Y546880D01*
Y580735D01*
X3200252Y597663D01*
X3166397D01*
X3149469Y580735D01*
Y546880D01*
X3166397Y529952D01*
X3251036D02*
Y597663D01*
X3267964D01*
X3284892Y580735D01*
Y529952D01*
Y580735D01*
X3301820Y597663D01*
X3318747Y580735D01*
Y529952D01*
X3352603Y496096D02*
Y597663D01*
X3403387D01*
X3420315Y580735D01*
Y546880D01*
X3403387Y529952D01*
X3352603D01*
X3471098Y597663D02*
X3504954D01*
X3521882Y580735D01*
Y529952D01*
X3471098D01*
X3454171Y546880D01*
X3471098Y563808D01*
X3521882D01*
X3555738Y529952D02*
Y597663D01*
X3606521D01*
X3623449Y580735D01*
Y529952D01*
X3657305Y597663D02*
Y546880D01*
X3674233Y529952D01*
X3725016D01*
Y513024D01*
X3708089Y496096D01*
X3691161D01*
X3725016Y529952D02*
Y597663D01*
X2743200Y414823D02*
Y313256D01*
X2810911D01*
X2844767D02*
X2878623D01*
X2861695D01*
Y380967D01*
X2844767D01*
X2929407Y313256D02*
Y414823D01*
X2980190D01*
X2997118Y397895D01*
Y364039D01*
X2980190Y347111D01*
X2929407D01*
X3047902Y313256D02*
X3081757D01*
X3098685Y330183D01*
Y364039D01*
X3081757Y380967D01*
X3047902D01*
X3030974Y364039D01*
Y330183D01*
X3047902Y313256D01*
X3234108Y414823D02*
Y330183D01*
X3251036Y313256D01*
X3284892D01*
X3301820Y330183D01*
Y414823D01*
X3403387Y397895D02*
X3386459Y414823D01*
X3352603D01*
X3335676Y397895D01*
Y380967D01*
X3352603Y364039D01*
X3386459D01*
X3403387Y347111D01*
Y330183D01*
X3386459Y313256D01*
X3352603D01*
X3335676Y330183D01*
X3437243Y414823D02*
Y313256D01*
X3488026D01*
X3504954Y330183D01*
Y347111D01*
X3488026Y364039D01*
X3437243D01*
X3488026D01*
X3504954Y380967D01*
Y397895D01*
X3488026Y414823D01*
X3437243D01*
X3708089Y397895D02*
X3691161Y414823D01*
X3657305D01*
X3640377Y397895D01*
Y330183D01*
X3657305Y313256D01*
X3691161D01*
X3708089Y330183D01*
X3741945Y414823D02*
Y313256D01*
Y364039D01*
X3758872Y380967D01*
X3792728D01*
X3809656Y364039D01*
Y313256D01*
X3860440Y380967D02*
X3894295D01*
X3911223Y364039D01*
Y313256D01*
X3860440D01*
X3843512Y330183D01*
X3860440Y347111D01*
X3911223D01*
X3945079Y380967D02*
Y313256D01*
Y347111D01*
X3962007Y364039D01*
X3978935Y380967D01*
X3995862D01*
X4080502Y279400D02*
X4097430D01*
X4114358Y296328D01*
Y380967D01*
X4063574D01*
X4046646Y364039D01*
Y330183D01*
X4063574Y313256D01*
X4114358D01*
X4198997D02*
X4165141D01*
X4148213Y330183D01*
Y364039D01*
X4165141Y380967D01*
X4198997D01*
X4215925Y364039D01*
Y347111D01*
X4148213D01*
X4249781Y380967D02*
Y313256D01*
Y347111D01*
X4266709Y364039D01*
X4283636Y380967D01*
X4300564D01*
X4385711Y5313608D02*
X4351856Y5296680D01*
X4318000Y5262824D01*
Y5228968D01*
X4334928Y5212041D01*
X4368783D01*
X4385711Y5228968D01*
Y5245896D01*
X4368783Y5262824D01*
X4318000D01*
X4521134Y5313608D02*
Y5245896D01*
X4554990Y5212041D01*
X4588846Y5245896D01*
Y5313608D01*
X4318000Y5029200D02*
Y5130767D01*
X4351856Y5096911D01*
X4385711Y5130767D01*
Y5029200D01*
X4419567D02*
Y5096911D01*
X4453423Y5130767D01*
X4487279Y5096911D01*
Y5029200D01*
Y5079983D01*
X4419567D01*
X4521134Y5130767D02*
X4588846Y5029200D01*
Y5130767D02*
X4521134Y5029200D01*
X2692417Y965200D02*
Y1032911D01*
X2658561Y999056D02*
X2726272D01*
X2692417Y1168334D02*
Y1236046D01*
Y3505200D02*
Y3572911D01*
X2658561Y3539056D02*
X2726272D01*
X2692417Y3708334D02*
Y3776046D01*
X889000Y2946400D02*
Y3047967D01*
X939783D01*
X956711Y3031039D01*
Y2997183D01*
X939783Y2980256D01*
X889000D01*
X990567Y2946400D02*
Y3047967D01*
X1041351D01*
X1058279Y3031039D01*
Y2997183D01*
X1041351Y2980256D01*
X990567D01*
X1024423D02*
X1058279Y2946400D01*
X1142918Y3047967D02*
X1109062D01*
X1092134Y3031039D01*
Y2963328D01*
X1109062Y2946400D01*
X1142918D01*
X1159846Y2963328D01*
Y3031039D01*
X1142918Y3047967D01*
X1261413Y3031039D02*
X1244485Y3047967D01*
X1210630D01*
X1193702Y3031039D01*
Y2963328D01*
X1210630Y2946400D01*
X1244485D01*
X1261413Y2963328D01*
Y2997183D01*
X1227557D01*
X812783Y5410200D02*
X762000Y5460983D01*
X812783Y5511767D01*
X863567Y5460983D02*
X931279D01*
X1134413Y5494839D02*
X1117485Y5511767D01*
X1083630D01*
X1066702Y5494839D01*
Y5477911D01*
X1083630Y5460983D01*
X1117485D01*
X1134413Y5444056D01*
Y5427128D01*
X1117485Y5410200D01*
X1083630D01*
X1066702Y5427128D01*
X1168269Y5511767D02*
Y5494839D01*
X1202125Y5460983D01*
X1235980Y5494839D01*
Y5511767D01*
X1202125Y5460983D02*
Y5410200D01*
X1337547Y5494839D02*
X1320620Y5511767D01*
X1286764D01*
X1269836Y5494839D01*
Y5477911D01*
X1286764Y5460983D01*
X1320620D01*
X1337547Y5444056D01*
Y5427128D01*
X1320620Y5410200D01*
X1286764D01*
X1269836Y5427128D01*
X1523754Y5511767D02*
X1489898D01*
X1472971Y5494839D01*
Y5427128D01*
X1489898Y5410200D01*
X1523754D01*
X1540682Y5427128D01*
Y5494839D01*
X1523754Y5511767D01*
X1574538D02*
Y5427128D01*
X1591466Y5410200D01*
X1625321D01*
X1642249Y5427128D01*
Y5511767D01*
X1676105D02*
X1743816D01*
X1709961D01*
Y5410200D01*
X609600Y736567D02*
Y635000D01*
X660383D01*
X677311Y651928D01*
Y668856D01*
X660383Y685783D01*
X609600D01*
X660383D01*
X677311Y702711D01*
Y719639D01*
X660383Y736567D01*
X609600D01*
X711167Y635000D02*
Y702711D01*
X745023Y736567D01*
X778879Y702711D01*
Y635000D01*
Y685783D01*
X711167D01*
X812734Y736567D02*
X880446D01*
X846590D01*
Y635000D01*
X1015869Y736567D02*
X1049725D01*
X1032797D01*
Y635000D01*
X1015869D01*
X1049725D01*
X1100508D02*
Y736567D01*
X1168220Y635000D01*
Y736567D01*
X1303643Y685783D02*
X1371354D01*
X1405210Y635000D02*
X1455994Y685783D01*
X1405210Y736567D01*
D39*
X3607200Y1701800D02*
G03*
X3607200Y1701800I-12500J0D01*
G01*
X3594500Y1143000D02*
G03*
X3594500Y1143000I-12500J0D01*
G01*
X4555600Y1140000D02*
G03*
X4555600Y1140000I-12500J0D01*
G01*
X2723100Y2394600D02*
G03*
X2723100Y2394600I-12500J0D01*
G01*
D40*
X2819400Y3784600D02*
G03*
X2819400Y3784600I-38100J0D01*
G01*
Y1219200D02*
G03*
X2819400Y1219200I-38100J0D01*
G01*
D41*
X3889700Y1831800D02*
X4023200D01*
X3889700Y1571800D02*
Y1831800D01*
Y1571800D02*
X4023200D01*
X3877000Y1273000D02*
X4010500D01*
X3877000Y1013000D02*
Y1273000D01*
Y1013000D02*
X4010500D01*
X3412600Y2964300D02*
Y2979300D01*
X3267600Y2964300D02*
Y2979300D01*
X3605700Y3626700D02*
Y3962900D01*
Y4367900D02*
Y4552100D01*
Y3626700D02*
X4043400D01*
X3605700Y4552100D02*
X4993400D01*
X4753400Y3626700D02*
X4993400D01*
X5069400Y895500D02*
X5150592D01*
X4681070Y895470D02*
X4801800D01*
X4681070D02*
Y908600D01*
X4680598Y1631501D02*
Y1644531D01*
X4680600D02*
X4801800D01*
X5069400D02*
X5150600D01*
X5150592Y895500D02*
Y1644500D01*
X2375900Y4844139D02*
Y4858661D01*
X2500900Y4844139D02*
Y4858661D01*
X3054507Y4685393D02*
Y4966607D01*
X2838293Y4685393D02*
Y4966607D01*
X2740600Y2529600D02*
X3050600D01*
X2740600Y2499600D02*
X3050600D01*
Y2529600D01*
X2740600Y2499600D02*
Y2529600D01*
X767200Y3122200D02*
X1417200D01*
Y2872200D02*
Y3122200D01*
X767200Y2872200D02*
X1417200D01*
X767200D02*
Y3122200D01*
X694700Y2997200D02*
X767200D01*
X1417200D02*
X1489700D01*
X3107800Y1694300D02*
Y1709300D01*
X2962800Y1694300D02*
Y1709300D01*
D42*
X3251100Y5344800D02*
Y5424800D01*
Y5192400D02*
Y5272400D01*
D43*
X2603500Y3403600D02*
Y3911600D01*
X2324100Y3403600D02*
X2603500D01*
X2324100D02*
Y3911600D01*
X2603500D01*
Y838200D02*
Y1346200D01*
X2324100Y838200D02*
X2603500D01*
X2324100D02*
Y1346200D01*
X2603500D01*
X3742321Y5232384D02*
Y5130817D01*
X3810033D01*
X3911600Y5232384D02*
X3843889D01*
Y5130817D01*
X3911600D01*
X3843889Y5181600D02*
X3877744D01*
X3945456Y5232384D02*
Y5130817D01*
X3996239D01*
X4013167Y5147744D01*
Y5215456D01*
X3996239Y5232384D01*
X3945456D01*
X4047023Y5130817D02*
X4080879D01*
X4063951D01*
Y5232384D01*
X4047023Y5215456D01*
X3699961Y2006584D02*
Y1905017D01*
X3750744D01*
X3767672Y1921944D01*
Y1989656D01*
X3750744Y2006584D01*
X3699961D01*
X3869239Y1905017D02*
X3801528D01*
X3869239Y1972728D01*
Y1989656D01*
X3852312Y2006584D01*
X3818456D01*
X3801528Y1989656D01*
X3666089Y939784D02*
Y838217D01*
X3716872D01*
X3733800Y855144D01*
Y922856D01*
X3716872Y939784D01*
X3666089D01*
X3767656Y838217D02*
X3801512D01*
X3784584D01*
Y939784D01*
X3767656Y922856D01*
X3581400Y3107256D02*
X3564472Y3124184D01*
X3530617D01*
X3513689Y3107256D01*
Y3039544D01*
X3530617Y3022617D01*
X3564472D01*
X3581400Y3039544D01*
X3615256Y3022617D02*
X3649112D01*
X3632184D01*
Y3124184D01*
X3615256Y3107256D01*
X2114951Y3342607D02*
X2081096D01*
X2098023D01*
Y3257968D01*
X2081096Y3241040D01*
X2064168D01*
X2047240Y3257968D01*
X2148807Y3241040D02*
X2182663D01*
X2165735D01*
Y3342607D01*
X2148807Y3325679D01*
X2114951Y751807D02*
X2081096D01*
X2098023D01*
Y667168D01*
X2081096Y650240D01*
X2064168D01*
X2047240Y667168D01*
X2148807Y734879D02*
X2165735Y751807D01*
X2199591D01*
X2216519Y734879D01*
Y717951D01*
X2199591Y701023D01*
X2182663D01*
X2199591D01*
X2216519Y684096D01*
Y667168D01*
X2199591Y650240D01*
X2165735D01*
X2148807Y667168D01*
X4707472Y812784D02*
X4673617D01*
X4690544D01*
Y728144D01*
X4673617Y711217D01*
X4656689D01*
X4639761Y728144D01*
X4809039Y711217D02*
X4741328D01*
X4809039Y778928D01*
Y795856D01*
X4792112Y812784D01*
X4758256D01*
X4741328Y795856D01*
X2472289Y2616184D02*
Y2531544D01*
X2489217Y2514617D01*
X2523072D01*
X2540000Y2531544D01*
Y2616184D01*
X2573856Y2514617D02*
X2607712D01*
X2590784D01*
Y2616184D01*
X2573856Y2599256D01*
X2616216Y5723456D02*
X2599288Y5740384D01*
X2565433D01*
X2548505Y5723456D01*
Y5706528D01*
X2565433Y5689600D01*
X2599288D01*
X2616216Y5672672D01*
Y5655744D01*
X2599288Y5638817D01*
X2565433D01*
X2548505Y5655744D01*
X2717783Y5740384D02*
X2683928D01*
X2700856D01*
Y5655744D01*
X2683928Y5638817D01*
X2667000D01*
X2650072Y5655744D01*
X2751639Y5638817D02*
X2785495D01*
X2768567D01*
Y5740384D01*
X2751639Y5723456D01*
X2760161Y4470417D02*
Y4571984D01*
X2810944D01*
X2827872Y4555056D01*
Y4521200D01*
X2810944Y4504272D01*
X2760161D01*
X2794017D02*
X2827872Y4470417D01*
X2912512D02*
Y4571984D01*
X2861728Y4521200D01*
X2929439D01*
X2480761Y4470417D02*
Y4571984D01*
X2531544D01*
X2548472Y4555056D01*
Y4521200D01*
X2531544Y4504272D01*
X2480761D01*
X2514617D02*
X2548472Y4470417D01*
X2582328Y4555056D02*
X2599256Y4571984D01*
X2633112D01*
X2650039Y4555056D01*
Y4538128D01*
X2633112Y4521200D01*
X2616184D01*
X2633112D01*
X2650039Y4504272D01*
Y4487344D01*
X2633112Y4470417D01*
X2599256D01*
X2582328Y4487344D01*
X220161Y2946417D02*
Y3047984D01*
X270944D01*
X287872Y3031056D01*
Y2997200D01*
X270944Y2980272D01*
X220161D01*
X254017D02*
X287872Y2946417D01*
X389439D02*
X321728D01*
X389439Y3014128D01*
Y3031056D01*
X372512Y3047984D01*
X338656D01*
X321728Y3031056D01*
X2904089Y3200417D02*
Y3301984D01*
X2954872D01*
X2971800Y3285056D01*
Y3251200D01*
X2954872Y3234272D01*
X2904089D01*
X2937944D02*
X2971800Y3200417D01*
X3005656D02*
X3039512D01*
X3022584D01*
Y3301984D01*
X3005656Y3285056D01*
X3725394Y5460984D02*
Y5359417D01*
X3793105D01*
X3894672Y5460984D02*
X3826961D01*
Y5359417D01*
X3894672D01*
X3826961Y5410200D02*
X3860817D01*
X3928528Y5460984D02*
Y5359417D01*
X3979312D01*
X3996239Y5376344D01*
Y5444056D01*
X3979312Y5460984D01*
X3928528D01*
X4097807Y5359417D02*
X4030095D01*
X4097807Y5427128D01*
Y5444056D01*
X4080879Y5460984D01*
X4047023D01*
X4030095Y5444056D01*
X4859872Y3174984D02*
X4826017D01*
X4842944D01*
Y3090344D01*
X4826017Y3073417D01*
X4809089D01*
X4792161Y3090344D01*
X4961439Y3174984D02*
X4927584Y3158056D01*
X4893728Y3124200D01*
Y3090344D01*
X4910656Y3073417D01*
X4944512D01*
X4961439Y3090344D01*
Y3107272D01*
X4944512Y3124200D01*
X4893728D01*
X2446872Y761984D02*
X2413017D01*
X2429944D01*
Y677344D01*
X2413017Y660417D01*
X2396089D01*
X2379161Y677344D01*
X2548439Y761984D02*
X2480728D01*
Y711200D01*
X2514584Y728128D01*
X2531512D01*
X2548439Y711200D01*
Y677344D01*
X2531512Y660417D01*
X2497656D01*
X2480728Y677344D01*
X2446872Y4190984D02*
X2413017D01*
X2429944D01*
Y4106344D01*
X2413017Y4089417D01*
X2396089D01*
X2379161Y4106344D01*
X2531512Y4089417D02*
Y4190984D01*
X2480728Y4140200D01*
X2548439D01*
X3335872Y1710256D02*
X3318944Y1727184D01*
X3285089D01*
X3268161Y1710256D01*
Y1642544D01*
X3285089Y1625617D01*
X3318944D01*
X3335872Y1642544D01*
X3437439Y1625617D02*
X3369728D01*
X3437439Y1693328D01*
Y1710256D01*
X3420512Y1727184D01*
X3386656D01*
X3369728Y1710256D01*
D44*
X2976011Y5626028D02*
X2908300D01*
Y5575244D01*
X2942156Y5592172D01*
X2959083D01*
X2976011Y5575244D01*
Y5541388D01*
X2959083Y5524461D01*
X2925228D01*
X2908300Y5541388D01*
X3009867Y5609100D02*
X3026795Y5626028D01*
X3060651D01*
X3077579Y5609100D01*
Y5541388D01*
X3060651Y5524461D01*
X3026795D01*
X3009867Y5541388D01*
Y5609100D01*
X3111434D02*
X3128362Y5626028D01*
X3162218D01*
X3179146Y5609100D01*
Y5541388D01*
X3162218Y5524461D01*
X3128362D01*
X3111434Y5541388D01*
Y5609100D01*
X2908300Y5372100D02*
Y5439811D01*
X2925228D01*
X2942156Y5422883D01*
Y5372100D01*
Y5422883D01*
X2959083Y5439811D01*
X2976011Y5422883D01*
Y5372100D01*
X3009867D02*
Y5439811D01*
X3043723Y5473667D01*
X3077579Y5439811D01*
Y5372100D01*
Y5422883D01*
X3009867D01*
X2171700Y5524461D02*
X2205556D01*
X2188628D01*
Y5626028D01*
X2171700Y5609100D01*
X2256339D02*
X2273267Y5626028D01*
X2307123D01*
X2324051Y5609100D01*
Y5541388D01*
X2307123Y5524461D01*
X2273267D01*
X2256339Y5541388D01*
Y5609100D01*
X2357907D02*
X2374834Y5626028D01*
X2408690D01*
X2425618Y5609100D01*
Y5541388D01*
X2408690Y5524461D01*
X2374834D01*
X2357907Y5541388D01*
Y5609100D01*
X2171700Y5372100D02*
Y5439811D01*
X2188628D01*
X2205556Y5422883D01*
Y5372100D01*
Y5422883D01*
X2222483Y5439811D01*
X2239411Y5422883D01*
Y5372100D01*
X2273267D02*
Y5439811D01*
X2307123Y5473667D01*
X2340979Y5439811D01*
Y5372100D01*
Y5422883D01*
X2273267D01*
D45*
X3928744Y1701798D02*
D03*
X3916055Y1142998D02*
D03*
%TF.MD5,f28064d3f81f6bc4061a9b66c09d02b1*%
M02*
