%TF.GenerationSoftware,Altium Limited,Altium Designer,24.7.2 (38)*%
G04 Layer_Color=8388736*
%FSLAX45Y45*%
%MOMM*%
%TF.SameCoordinates,425E0F67-3F04-4F15-B929-D04D496562EE*%
%TF.FilePolarity,Negative*%
%TF.FileFunction,Soldermask,Top*%
%TF.Part,Single*%
G01*
G75*
%TA.AperFunction,SMDPad,CuDef*%
%ADD12R,1.40000X0.95000*%
%ADD14R,4.06000X3.30000*%
%ADD15R,6.35000X3.81000*%
%ADD16R,6.35000X3.30000*%
%ADD21R,1.40822X1.00650*%
%ADD22R,1.36213X1.05814*%
%TA.AperFunction,ComponentPad*%
%ADD29C,1.78000*%
%ADD31R,1.25000X1.25000*%
%ADD32C,1.25000*%
%ADD33C,1.52400*%
%TA.AperFunction,NonConductor*%
%ADD46C,0.70320*%
%TA.AperFunction,SMDPad,CuDef*%
%ADD47R,2.20320X2.20320*%
%ADD48C,4.20320*%
%ADD49R,0.80320X1.00320*%
%TA.AperFunction,ConnectorPad*%
%ADD50R,1.55320X0.60320*%
%ADD51R,2.10320X1.70320*%
%TA.AperFunction,SMDPad,CuDef*%
%ADD52R,1.55320X1.20320*%
%ADD53R,0.90320X1.50320*%
%ADD54R,0.83820X1.47320*%
%TA.AperFunction,ComponentPad*%
%ADD55C,1.65320*%
%ADD56C,4.20320*%
%ADD57C,1.85320*%
%ADD58C,1.20320*%
%TA.AperFunction,ViaPad*%
%ADD59C,1.47320*%
G36*
X5031929Y1050095D02*
X5033235Y1049835D01*
X5034496Y1049407D01*
X5035691Y1048818D01*
X5036798Y1048078D01*
X5037800Y1047200D01*
X5038678Y1046199D01*
X5039418Y1045091D01*
X5040007Y1043897D01*
X5040435Y1042635D01*
X5040695Y1041329D01*
X5040782Y1040000D01*
Y910000D01*
X5040695Y908671D01*
X5040435Y907365D01*
X5040007Y906104D01*
X5039418Y904909D01*
X5038678Y903802D01*
X5037800Y902801D01*
X5036798Y901923D01*
X5035691Y901183D01*
X5034496Y900593D01*
X5033235Y900165D01*
X5031929Y899905D01*
X5030600Y899818D01*
X4990785D01*
Y860002D01*
X4990697Y858673D01*
X4990438Y857367D01*
X4990010Y856106D01*
X4989719Y855517D01*
X4989421Y854912D01*
X4988681Y853804D01*
X4987803Y852803D01*
X4987802D01*
Y852803D01*
X4986801Y851925D01*
X4985694Y851185D01*
X4985089Y850886D01*
X4984499Y850595D01*
X4983238Y850167D01*
X4981932Y849908D01*
X4980603Y849821D01*
X4890600Y849818D01*
D01*
X4890600D01*
X4889271Y849905D01*
X4887965Y850165D01*
X4886704Y850593D01*
X4886115Y850884D01*
X4885509Y851182D01*
X4884402Y851922D01*
X4883401Y852800D01*
Y852800D01*
X4883400D01*
X4882522Y853802D01*
X4881782Y854909D01*
X4881484Y855514D01*
X4881193Y856103D01*
X4880765Y857365D01*
X4880505Y858671D01*
X4880418Y860000D01*
D01*
Y860000D01*
Y899818D01*
X4840600D01*
X4839271Y899905D01*
X4837965Y900165D01*
X4836704Y900593D01*
X4835509Y901183D01*
X4834402Y901923D01*
X4833400Y902801D01*
X4832522Y903802D01*
X4831782Y904909D01*
X4831193Y906104D01*
X4830765Y907365D01*
X4830505Y908671D01*
X4830418Y910000D01*
Y1040000D01*
X4830505Y1041329D01*
X4830765Y1042635D01*
X4831193Y1043897D01*
X4831782Y1045091D01*
X4832522Y1046199D01*
X4833400Y1047200D01*
X4834402Y1048078D01*
X4835509Y1048818D01*
X4836704Y1049407D01*
X4837965Y1049835D01*
X4839271Y1050095D01*
X4840600Y1050182D01*
X5030600D01*
X5031929Y1050095D01*
D02*
G37*
G36*
X4981929Y1690095D02*
X4983235Y1689835D01*
X4984496Y1689407D01*
X4985085Y1689117D01*
X4985691Y1688818D01*
X4986798Y1688078D01*
X4987799Y1687200D01*
Y1687200D01*
X4987800D01*
X4988678Y1686199D01*
X4989418Y1685091D01*
X4989716Y1684486D01*
X4990007Y1683897D01*
X4990435Y1682636D01*
X4990695Y1681330D01*
X4990782Y1680001D01*
D01*
Y1680000D01*
Y1640182D01*
X5030600D01*
X5031929Y1640095D01*
X5033235Y1639835D01*
X5034496Y1639407D01*
X5035691Y1638818D01*
X5036798Y1638078D01*
X5037800Y1637200D01*
X5038678Y1636199D01*
X5039418Y1635091D01*
X5040007Y1633897D01*
X5040435Y1632636D01*
X5040695Y1631329D01*
X5040782Y1630000D01*
Y1500000D01*
X5040695Y1498671D01*
X5040435Y1497365D01*
X5040007Y1496104D01*
X5039418Y1494909D01*
X5038678Y1493802D01*
X5037800Y1492801D01*
X5036798Y1491923D01*
X5035691Y1491183D01*
X5034496Y1490593D01*
X5033235Y1490165D01*
X5031929Y1489906D01*
X5030600Y1489818D01*
X4840600D01*
X4839271Y1489906D01*
X4837965Y1490165D01*
X4836704Y1490593D01*
X4835509Y1491183D01*
X4834402Y1491923D01*
X4833400Y1492801D01*
X4832522Y1493802D01*
X4831782Y1494909D01*
X4831193Y1496104D01*
X4830765Y1497365D01*
X4830505Y1498671D01*
X4830418Y1500000D01*
Y1630000D01*
X4830505Y1631329D01*
X4830765Y1632636D01*
X4831193Y1633897D01*
X4831782Y1635091D01*
X4832522Y1636199D01*
X4833400Y1637200D01*
X4834402Y1638078D01*
X4835509Y1638818D01*
X4836704Y1639407D01*
X4837965Y1639835D01*
X4839271Y1640095D01*
X4840600Y1640182D01*
X4880415D01*
Y1679998D01*
X4880503Y1681327D01*
X4880762Y1682633D01*
X4881190Y1683895D01*
X4881481Y1684484D01*
X4881779Y1685089D01*
X4882519Y1686196D01*
X4883397Y1687198D01*
X4883398D01*
Y1687198D01*
X4884399Y1688076D01*
X4885506Y1688816D01*
X4886111Y1689114D01*
X4886701Y1689405D01*
X4887962Y1689833D01*
X4889268Y1690093D01*
X4890597Y1690180D01*
X4980600Y1690182D01*
D01*
X4980600D01*
X4981929Y1690095D01*
D02*
G37*
D12*
X3340100Y3064300D02*
D03*
Y2879300D02*
D03*
X3035300Y1794300D02*
D03*
Y1609300D02*
D03*
D14*
X3478400Y4165400D02*
D03*
D15*
X4392400Y3446400D02*
D03*
D16*
Y4775400D02*
D03*
D21*
X2438400Y4756314D02*
D03*
Y4946486D02*
D03*
D22*
X2946400Y4738301D02*
D03*
Y4913699D02*
D03*
D29*
X4768400Y4089400D02*
D03*
D31*
X592200Y2997200D02*
D03*
D32*
X1592200D02*
D03*
D33*
X2463800Y3530600D02*
D03*
Y3784600D02*
D03*
Y965200D02*
D03*
Y1219200D02*
D03*
D46*
X5005600Y910000D02*
G03*
X5005600Y910000I-25000J0D01*
G01*
X4915600D02*
G03*
X4915600Y910000I-25000J0D01*
G01*
X5005600Y1630000D02*
G03*
X5005600Y1630000I-25000J0D01*
G01*
X4915600D02*
G03*
X4915600Y1630000I-25000J0D01*
G01*
D47*
X4149700Y1701800D02*
D03*
X3749700D02*
D03*
X4137000Y1143000D02*
D03*
X3737000D02*
D03*
D48*
X1371600Y3733800D02*
D03*
Y1143000D02*
D03*
D49*
X3476100Y5384800D02*
D03*
X3331100D02*
D03*
X3476100Y5232400D02*
D03*
X3331100D02*
D03*
D50*
X4665600Y1140000D02*
D03*
Y1205000D02*
D03*
Y1270000D02*
D03*
Y1335000D02*
D03*
Y1400000D02*
D03*
D51*
X4935600Y1170000D02*
D03*
Y1370000D02*
D03*
D52*
X2997200Y2922200D02*
D03*
Y3072200D02*
D03*
D53*
X2800600Y2634600D02*
D03*
X2990600D02*
D03*
Y2394600D02*
D03*
X2895600D02*
D03*
X2800600D02*
D03*
D54*
X2755900Y5486400D02*
D03*
X2667000D02*
D03*
X2578100D02*
D03*
D55*
X4665600Y1520000D02*
D03*
Y1020000D02*
D03*
D56*
X1371600Y5003800D02*
D03*
Y2413000D02*
D03*
D57*
X2133600Y4622800D02*
D03*
Y4114800D02*
D03*
Y2032000D02*
D03*
Y1524000D02*
D03*
D58*
X4826170Y5586824D02*
D03*
X228770Y5612224D02*
D03*
X4826170Y252824D02*
D03*
X254170D02*
D03*
D59*
X3835400Y2870200D02*
D03*
X2540000Y1981200D02*
D03*
X3479800Y4826000D02*
D03*
X3683000D02*
D03*
X3886200D02*
D03*
Y4622800D02*
D03*
X3683000D02*
D03*
X3479800D02*
D03*
X4318000Y1397000D02*
D03*
X3035300Y1371600D02*
D03*
X2946400Y4318000D02*
D03*
X2438400D02*
D03*
%TF.MD5,b16fca18ceeee4666495c19b790e2928*%
M02*
