%TF.GenerationSoftware,Altium Limited,Altium Designer,24.7.2 (38)*%
G04 Layer_Physical_Order=2*
G04 Layer_Color=16711680*
%FSLAX45Y45*%
%MOMM*%
%TF.SameCoordinates,425E0F67-3F04-4F15-B929-D04D496562EE*%
%TF.FilePolarity,Positive*%
%TF.FileFunction,Copper,L2,Bot,Signal*%
%TF.Part,Single*%
G01*
G75*
%TA.AperFunction,ComponentPad*%
%ADD29C,1.78000*%
%ADD30C,1.45000*%
%ADD31R,1.25000X1.25000*%
%ADD32C,1.25000*%
%ADD33C,1.52400*%
%ADD34C,4.00000*%
%ADD35C,1.65000*%
%ADD36C,1.00000*%
%TA.AperFunction,ViaPad*%
%ADD37C,1.27000*%
%TA.AperFunction,NonConductor*%
%ADD38C,0.25400*%
G36*
X4693926Y5676900D02*
X4684380Y5662613D01*
X4672318Y5633494D01*
X4666170Y5602583D01*
Y5571066D01*
X4672318Y5540154D01*
X4684380Y5511036D01*
X4701890Y5484830D01*
X4724176Y5462544D01*
X4750381Y5445034D01*
X4779499Y5432973D01*
X4810411Y5426824D01*
X4841928D01*
X4852900Y5429007D01*
X4862699Y5420927D01*
X4856848Y4139603D01*
X4844133Y4136227D01*
X4839618Y4144047D01*
X4823047Y4160618D01*
X4802753Y4172335D01*
X4780117Y4178400D01*
X4756683D01*
X4734047Y4172335D01*
X4713753Y4160618D01*
X4697182Y4144047D01*
X4685465Y4123753D01*
X4679400Y4101117D01*
Y4077683D01*
X4685465Y4055047D01*
X4697182Y4034753D01*
X4713753Y4018182D01*
X4734047Y4006465D01*
X4756683Y4000400D01*
X4780117D01*
X4802753Y4006465D01*
X4823047Y4018182D01*
X4839618Y4034753D01*
X4843702Y4041826D01*
X4856386Y4038397D01*
X4839831Y412824D01*
X4810411D01*
X4779499Y406676D01*
X4750381Y394614D01*
X4724176Y377104D01*
X4701890Y354818D01*
X4684380Y328613D01*
X4672318Y299494D01*
X4666170Y268583D01*
Y254000D01*
X4368800D01*
Y457200D01*
X4013200D01*
Y254000D01*
X414170D01*
Y268583D01*
X408021Y299494D01*
X395960Y328613D01*
X378450Y354818D01*
X356164Y377104D01*
X329958Y394614D01*
X300840Y406676D01*
X269928Y412824D01*
X238411D01*
X207499Y406676D01*
X178381Y394614D01*
X152176Y377104D01*
X139700Y364629D01*
X127000Y369889D01*
Y5474323D01*
X138201Y5480310D01*
X152981Y5470434D01*
X182099Y5458373D01*
X213011Y5452224D01*
X244528D01*
X275440Y5458373D01*
X304558Y5470434D01*
X330764Y5487944D01*
X353050Y5510230D01*
X370560Y5536436D01*
X382621Y5565554D01*
X388770Y5596466D01*
Y5627983D01*
X382621Y5658894D01*
X375163Y5676900D01*
X383649Y5689600D01*
X4687138D01*
X4693926Y5676900D01*
D02*
G37*
%LPC*%
G36*
X1393800Y5229200D02*
X1384300D01*
Y5016500D01*
X1597000D01*
Y5026000D01*
X1588338Y5069547D01*
X1571347Y5110567D01*
X1546680Y5147484D01*
X1515284Y5178880D01*
X1478367Y5203547D01*
X1437347Y5220538D01*
X1393800Y5229200D01*
D02*
G37*
G36*
X1358900D02*
X1349400D01*
X1305853Y5220538D01*
X1264833Y5203547D01*
X1227916Y5178880D01*
X1196520Y5147484D01*
X1171853Y5110567D01*
X1154862Y5069547D01*
X1146200Y5026000D01*
Y5016500D01*
X1358900D01*
Y5229200D01*
D02*
G37*
G36*
X3898900Y4914633D02*
Y4838700D01*
X3974833D01*
X3969042Y4860314D01*
X3957338Y4880586D01*
X3940786Y4897138D01*
X3920514Y4908842D01*
X3898900Y4914633D01*
D02*
G37*
G36*
X3873500D02*
X3851886Y4908842D01*
X3831614Y4897138D01*
X3815062Y4880586D01*
X3803358Y4860314D01*
X3797567Y4838700D01*
X3873500D01*
Y4914633D01*
D02*
G37*
G36*
X3695700D02*
Y4838700D01*
X3771633D01*
X3765842Y4860314D01*
X3754138Y4880586D01*
X3737586Y4897138D01*
X3717314Y4908842D01*
X3695700Y4914633D01*
D02*
G37*
G36*
X3670300D02*
X3648686Y4908842D01*
X3628414Y4897138D01*
X3611862Y4880586D01*
X3600158Y4860314D01*
X3594367Y4838700D01*
X3670300D01*
Y4914633D01*
D02*
G37*
G36*
X3492500D02*
Y4838700D01*
X3568433D01*
X3562642Y4860314D01*
X3550938Y4880586D01*
X3534386Y4897138D01*
X3514114Y4908842D01*
X3492500Y4914633D01*
D02*
G37*
G36*
X3467100D02*
X3445486Y4908842D01*
X3425214Y4897138D01*
X3408662Y4880586D01*
X3396958Y4860314D01*
X3391167Y4838700D01*
X3467100D01*
Y4914633D01*
D02*
G37*
G36*
X1597000Y4991100D02*
X1384300D01*
Y4778400D01*
X1393800D01*
X1437347Y4787062D01*
X1478367Y4804053D01*
X1515284Y4828720D01*
X1546680Y4860116D01*
X1571347Y4897033D01*
X1588338Y4938053D01*
X1597000Y4981600D01*
Y4991100D01*
D02*
G37*
G36*
X1358900D02*
X1146200D01*
Y4981600D01*
X1154862Y4938053D01*
X1171853Y4897033D01*
X1196520Y4860116D01*
X1227916Y4828720D01*
X1264833Y4804053D01*
X1305853Y4787062D01*
X1349400Y4778400D01*
X1358900D01*
Y4991100D01*
D02*
G37*
G36*
X3974833Y4813300D02*
X3898900D01*
Y4737367D01*
X3920514Y4743158D01*
X3940786Y4754862D01*
X3957338Y4771414D01*
X3969042Y4791686D01*
X3974833Y4813300D01*
D02*
G37*
G36*
X3873500D02*
X3797567D01*
X3803358Y4791686D01*
X3815062Y4771414D01*
X3831614Y4754862D01*
X3851886Y4743158D01*
X3873500Y4737367D01*
Y4813300D01*
D02*
G37*
G36*
X3771633D02*
X3695700D01*
Y4737367D01*
X3717314Y4743158D01*
X3737586Y4754862D01*
X3754138Y4771414D01*
X3765842Y4791686D01*
X3771633Y4813300D01*
D02*
G37*
G36*
X3670300D02*
X3594367D01*
X3600158Y4791686D01*
X3611862Y4771414D01*
X3628414Y4754862D01*
X3648686Y4743158D01*
X3670300Y4737367D01*
Y4813300D01*
D02*
G37*
G36*
X3568433D02*
X3492500D01*
Y4737367D01*
X3514114Y4743158D01*
X3534386Y4754862D01*
X3550938Y4771414D01*
X3562642Y4791686D01*
X3568433Y4813300D01*
D02*
G37*
G36*
X3467100D02*
X3391167D01*
X3396958Y4791686D01*
X3408662Y4771414D01*
X3425214Y4754862D01*
X3445486Y4743158D01*
X3467100Y4737367D01*
Y4813300D01*
D02*
G37*
G36*
X3898900Y4711433D02*
Y4635500D01*
X3974833D01*
X3969042Y4657114D01*
X3957338Y4677386D01*
X3940786Y4693938D01*
X3920514Y4705642D01*
X3898900Y4711433D01*
D02*
G37*
G36*
X3873500D02*
X3851886Y4705642D01*
X3831614Y4693938D01*
X3815062Y4677386D01*
X3803358Y4657114D01*
X3797567Y4635500D01*
X3873500D01*
Y4711433D01*
D02*
G37*
G36*
X3695700D02*
Y4635500D01*
X3771633D01*
X3765842Y4657114D01*
X3754138Y4677386D01*
X3737586Y4693938D01*
X3717314Y4705642D01*
X3695700Y4711433D01*
D02*
G37*
G36*
X3670300D02*
X3648686Y4705642D01*
X3628414Y4693938D01*
X3611862Y4677386D01*
X3600158Y4657114D01*
X3594367Y4635500D01*
X3670300D01*
Y4711433D01*
D02*
G37*
G36*
X3492500D02*
Y4635500D01*
X3568433D01*
X3562642Y4657114D01*
X3550938Y4677386D01*
X3534386Y4693938D01*
X3514114Y4705642D01*
X3492500Y4711433D01*
D02*
G37*
G36*
X3467100D02*
X3445486Y4705642D01*
X3425214Y4693938D01*
X3408662Y4677386D01*
X3396958Y4657114D01*
X3391167Y4635500D01*
X3467100D01*
Y4711433D01*
D02*
G37*
G36*
X3974833Y4610100D02*
X3898900D01*
Y4534167D01*
X3920514Y4539958D01*
X3940786Y4551662D01*
X3957338Y4568214D01*
X3969042Y4588486D01*
X3974833Y4610100D01*
D02*
G37*
G36*
X3873500D02*
X3797567D01*
X3803358Y4588486D01*
X3815062Y4568214D01*
X3831614Y4551662D01*
X3851886Y4539958D01*
X3873500Y4534167D01*
Y4610100D01*
D02*
G37*
G36*
X3771633D02*
X3695700D01*
Y4534167D01*
X3717314Y4539958D01*
X3737586Y4551662D01*
X3754138Y4568214D01*
X3765842Y4588486D01*
X3771633Y4610100D01*
D02*
G37*
G36*
X3670300D02*
X3594367D01*
X3600158Y4588486D01*
X3611862Y4568214D01*
X3628414Y4551662D01*
X3648686Y4539958D01*
X3670300Y4534167D01*
Y4610100D01*
D02*
G37*
G36*
X3568433D02*
X3492500D01*
Y4534167D01*
X3514114Y4539958D01*
X3534386Y4551662D01*
X3550938Y4568214D01*
X3562642Y4588486D01*
X3568433Y4610100D01*
D02*
G37*
G36*
X3467100D02*
X3391167D01*
X3396958Y4588486D01*
X3408662Y4568214D01*
X3425214Y4551662D01*
X3445486Y4539958D01*
X3467100Y4534167D01*
Y4610100D01*
D02*
G37*
G36*
X2147805Y4730700D02*
X2119395D01*
X2091952Y4723347D01*
X2067348Y4709141D01*
X2047259Y4689052D01*
X2033053Y4664448D01*
X2025700Y4637005D01*
Y4608595D01*
X2033053Y4581152D01*
X2047259Y4556548D01*
X2067348Y4536459D01*
X2091952Y4522253D01*
X2119395Y4514900D01*
X2147805D01*
X2175248Y4522253D01*
X2199852Y4536459D01*
X2219941Y4556548D01*
X2234147Y4581152D01*
X2241500Y4608595D01*
Y4637005D01*
X2234147Y4664448D01*
X2219941Y4689052D01*
X2199852Y4709141D01*
X2175248Y4723347D01*
X2147805Y4730700D01*
D02*
G37*
G36*
X2959100Y4406633D02*
Y4330700D01*
X3035033D01*
X3029242Y4352314D01*
X3017538Y4372586D01*
X3000986Y4389138D01*
X2980714Y4400842D01*
X2959100Y4406633D01*
D02*
G37*
G36*
X2933700D02*
X2912086Y4400842D01*
X2891814Y4389138D01*
X2875262Y4372586D01*
X2863558Y4352314D01*
X2857767Y4330700D01*
X2933700D01*
Y4406633D01*
D02*
G37*
G36*
X2451100D02*
Y4330700D01*
X2527033D01*
X2521242Y4352314D01*
X2509538Y4372586D01*
X2492986Y4389138D01*
X2472714Y4400842D01*
X2451100Y4406633D01*
D02*
G37*
G36*
X2425700D02*
X2404086Y4400842D01*
X2383814Y4389138D01*
X2367262Y4372586D01*
X2355558Y4352314D01*
X2349767Y4330700D01*
X2425700D01*
Y4406633D01*
D02*
G37*
G36*
X3035033Y4305300D02*
X2959100D01*
Y4229367D01*
X2980714Y4235158D01*
X3000986Y4246862D01*
X3017538Y4263414D01*
X3029242Y4283686D01*
X3035033Y4305300D01*
D02*
G37*
G36*
X2933700D02*
X2857767D01*
X2863558Y4283686D01*
X2875262Y4263414D01*
X2891814Y4246862D01*
X2912086Y4235158D01*
X2933700Y4229367D01*
Y4305300D01*
D02*
G37*
G36*
X2527033D02*
X2451100D01*
Y4229367D01*
X2472714Y4235158D01*
X2492986Y4246862D01*
X2509538Y4263414D01*
X2521242Y4283686D01*
X2527033Y4305300D01*
D02*
G37*
G36*
X2425700D02*
X2349767D01*
X2355558Y4283686D01*
X2367262Y4263414D01*
X2383814Y4246862D01*
X2404086Y4235158D01*
X2425700Y4229367D01*
Y4305300D01*
D02*
G37*
G36*
X2147805Y4222700D02*
X2119395D01*
X2091952Y4215347D01*
X2067348Y4201141D01*
X2047259Y4181052D01*
X2033053Y4156448D01*
X2025700Y4129005D01*
Y4100595D01*
X2033053Y4073152D01*
X2047259Y4048548D01*
X2067348Y4028459D01*
X2091952Y4014253D01*
X2119395Y4006900D01*
X2147805D01*
X2175248Y4014253D01*
X2199852Y4028459D01*
X2219941Y4048548D01*
X2234147Y4073152D01*
X2241500Y4100595D01*
Y4129005D01*
X2234147Y4156448D01*
X2219941Y4181052D01*
X2199852Y4201141D01*
X2175248Y4215347D01*
X2147805Y4222700D01*
D02*
G37*
G36*
X2477176Y3886200D02*
X2476500D01*
Y3797300D01*
X2565400D01*
Y3797976D01*
X2558476Y3823816D01*
X2545100Y3846984D01*
X2526184Y3865900D01*
X2503016Y3879276D01*
X2477176Y3886200D01*
D02*
G37*
G36*
X2451100D02*
X2450424D01*
X2424584Y3879276D01*
X2401416Y3865900D01*
X2382500Y3846984D01*
X2369124Y3823816D01*
X2362200Y3797976D01*
Y3797300D01*
X2451100D01*
Y3886200D01*
D02*
G37*
G36*
X2565400Y3771900D02*
X2476500D01*
Y3683000D01*
X2477176D01*
X2503016Y3689924D01*
X2526184Y3703300D01*
X2545100Y3722216D01*
X2558476Y3745384D01*
X2565400Y3771224D01*
Y3771900D01*
D02*
G37*
G36*
X2451100D02*
X2362200D01*
Y3771224D01*
X2369124Y3745384D01*
X2382500Y3722216D01*
X2401416Y3703300D01*
X2424584Y3689924D01*
X2450424Y3683000D01*
X2451100D01*
Y3771900D01*
D02*
G37*
G36*
X2477176Y3632200D02*
X2450424D01*
X2424584Y3625276D01*
X2401416Y3611900D01*
X2382500Y3592984D01*
X2369124Y3569816D01*
X2362200Y3543976D01*
Y3517224D01*
X2369124Y3491384D01*
X2382500Y3468216D01*
X2401416Y3449300D01*
X2424584Y3435924D01*
X2450424Y3429000D01*
X2477176D01*
X2503016Y3435924D01*
X2526184Y3449300D01*
X2545100Y3468216D01*
X2558476Y3491384D01*
X2565400Y3517224D01*
Y3543976D01*
X2558476Y3569816D01*
X2545100Y3592984D01*
X2526184Y3611900D01*
X2503016Y3625276D01*
X2477176Y3632200D01*
D02*
G37*
G36*
X680100Y3085100D02*
X604900D01*
Y3009900D01*
X680100D01*
Y3085100D01*
D02*
G37*
G36*
X579500D02*
X504300D01*
Y3009900D01*
X579500D01*
Y3085100D01*
D02*
G37*
G36*
X1603772D02*
X1580628D01*
X1558272Y3079110D01*
X1538228Y3067537D01*
X1521863Y3051172D01*
X1510290Y3031128D01*
X1504300Y3008772D01*
Y2985628D01*
X1510290Y2963272D01*
X1521863Y2943228D01*
X1538228Y2926863D01*
X1558272Y2915290D01*
X1580628Y2909300D01*
X1603772D01*
X1626128Y2915290D01*
X1646172Y2926863D01*
X1662537Y2943228D01*
X1674110Y2963272D01*
X1680100Y2985628D01*
Y3008772D01*
X1674110Y3031128D01*
X1662537Y3051172D01*
X1646172Y3067537D01*
X1626128Y3079110D01*
X1603772Y3085100D01*
D02*
G37*
G36*
X680100Y2984500D02*
X604900D01*
Y2909300D01*
X680100D01*
Y2984500D01*
D02*
G37*
G36*
X579500D02*
X504300D01*
Y2909300D01*
X579500D01*
Y2984500D01*
D02*
G37*
G36*
X3848100Y2958833D02*
Y2882900D01*
X3924033D01*
X3918242Y2904514D01*
X3906538Y2924786D01*
X3889986Y2941338D01*
X3869714Y2953042D01*
X3848100Y2958833D01*
D02*
G37*
G36*
X3822700D02*
X3801086Y2953042D01*
X3780814Y2941338D01*
X3764262Y2924786D01*
X3752558Y2904514D01*
X3746767Y2882900D01*
X3822700D01*
Y2958833D01*
D02*
G37*
G36*
X3924033Y2857500D02*
X3848100D01*
Y2781567D01*
X3869714Y2787358D01*
X3889986Y2799062D01*
X3906538Y2815614D01*
X3918242Y2835886D01*
X3924033Y2857500D01*
D02*
G37*
G36*
X3822700D02*
X3746767D01*
X3752558Y2835886D01*
X3764262Y2815614D01*
X3780814Y2799062D01*
X3801086Y2787358D01*
X3822700Y2781567D01*
Y2857500D01*
D02*
G37*
G36*
X1393800Y2638400D02*
X1384300D01*
Y2425700D01*
X1597000D01*
Y2435200D01*
X1588338Y2478747D01*
X1571347Y2519767D01*
X1546680Y2556684D01*
X1515284Y2588080D01*
X1478367Y2612747D01*
X1437347Y2629738D01*
X1393800Y2638400D01*
D02*
G37*
G36*
X1358900D02*
X1349400D01*
X1305853Y2629738D01*
X1264833Y2612747D01*
X1227916Y2588080D01*
X1196520Y2556684D01*
X1171853Y2519767D01*
X1154862Y2478747D01*
X1146200Y2435200D01*
Y2425700D01*
X1358900D01*
Y2638400D01*
D02*
G37*
G36*
X1597000Y2400300D02*
X1384300D01*
Y2187600D01*
X1393800D01*
X1437347Y2196262D01*
X1478367Y2213253D01*
X1515284Y2237920D01*
X1546680Y2269316D01*
X1571347Y2306233D01*
X1588338Y2347253D01*
X1597000Y2390800D01*
Y2400300D01*
D02*
G37*
G36*
X1358900D02*
X1146200D01*
Y2390800D01*
X1154862Y2347253D01*
X1171853Y2306233D01*
X1196520Y2269316D01*
X1227916Y2237920D01*
X1264833Y2213253D01*
X1305853Y2196262D01*
X1349400Y2187600D01*
X1358900D01*
Y2400300D01*
D02*
G37*
G36*
X2552700Y2069833D02*
Y1993900D01*
X2628633D01*
X2622842Y2015514D01*
X2611138Y2035786D01*
X2594586Y2052338D01*
X2574314Y2064042D01*
X2552700Y2069833D01*
D02*
G37*
G36*
X2527300D02*
X2505686Y2064042D01*
X2485414Y2052338D01*
X2468862Y2035786D01*
X2457158Y2015514D01*
X2451367Y1993900D01*
X2527300D01*
Y2069833D01*
D02*
G37*
G36*
X2147805Y2139900D02*
X2119395D01*
X2091952Y2132547D01*
X2067348Y2118341D01*
X2047259Y2098252D01*
X2033053Y2073648D01*
X2025700Y2046205D01*
Y2017795D01*
X2033053Y1990352D01*
X2047259Y1965748D01*
X2067348Y1945659D01*
X2091952Y1931453D01*
X2119395Y1924100D01*
X2147805D01*
X2175248Y1931453D01*
X2199852Y1945659D01*
X2219941Y1965748D01*
X2234147Y1990352D01*
X2241500Y2017795D01*
Y2046205D01*
X2234147Y2073648D01*
X2219941Y2098252D01*
X2199852Y2118341D01*
X2175248Y2132547D01*
X2147805Y2139900D01*
D02*
G37*
G36*
X2628633Y1968500D02*
X2552700D01*
Y1892567D01*
X2574314Y1898358D01*
X2594586Y1910062D01*
X2611138Y1926614D01*
X2622842Y1946886D01*
X2628633Y1968500D01*
D02*
G37*
G36*
X2527300D02*
X2451367D01*
X2457158Y1946886D01*
X2468862Y1926614D01*
X2485414Y1910062D01*
X2505686Y1898358D01*
X2527300Y1892567D01*
Y1968500D01*
D02*
G37*
G36*
X4678489Y1617900D02*
X4652711D01*
X4627812Y1611228D01*
X4605488Y1598340D01*
X4587261Y1580112D01*
X4574372Y1557788D01*
X4567700Y1532889D01*
Y1507112D01*
X4574372Y1482212D01*
X4587261Y1459888D01*
X4605488Y1441661D01*
X4627812Y1428772D01*
X4652711Y1422100D01*
X4678489D01*
X4703388Y1428772D01*
X4725712Y1441661D01*
X4743939Y1459888D01*
X4756828Y1482212D01*
X4763500Y1507112D01*
Y1532889D01*
X4756828Y1557788D01*
X4743939Y1580112D01*
X4725712Y1598340D01*
X4703388Y1611228D01*
X4678489Y1617900D01*
D02*
G37*
G36*
X2147805Y1631900D02*
X2119395D01*
X2091952Y1624547D01*
X2067348Y1610341D01*
X2047259Y1590252D01*
X2033053Y1565648D01*
X2025700Y1538205D01*
Y1509795D01*
X2033053Y1482352D01*
X2047259Y1457748D01*
X2067348Y1437659D01*
X2091952Y1423453D01*
X2119395Y1416100D01*
X2147805D01*
X2175248Y1423453D01*
X2199852Y1437659D01*
X2219941Y1457748D01*
X2234147Y1482352D01*
X2241500Y1509795D01*
Y1538205D01*
X2234147Y1565648D01*
X2219941Y1590252D01*
X2199852Y1610341D01*
X2175248Y1624547D01*
X2147805Y1631900D01*
D02*
G37*
G36*
X4330700Y1485633D02*
Y1409700D01*
X4406633D01*
X4400842Y1431314D01*
X4389138Y1451586D01*
X4372586Y1468138D01*
X4352314Y1479842D01*
X4330700Y1485633D01*
D02*
G37*
G36*
X4305300D02*
X4283686Y1479842D01*
X4263414Y1468138D01*
X4246862Y1451586D01*
X4235158Y1431314D01*
X4229367Y1409700D01*
X4305300D01*
Y1485633D01*
D02*
G37*
G36*
X3048000Y1460233D02*
Y1384300D01*
X3123933D01*
X3118142Y1405914D01*
X3106438Y1426186D01*
X3089886Y1442738D01*
X3069614Y1454442D01*
X3048000Y1460233D01*
D02*
G37*
G36*
X3022600D02*
X3000986Y1454442D01*
X2980714Y1442738D01*
X2964162Y1426186D01*
X2952458Y1405914D01*
X2946667Y1384300D01*
X3022600D01*
Y1460233D01*
D02*
G37*
G36*
X4406633Y1384300D02*
X4330700D01*
Y1308367D01*
X4352314Y1314158D01*
X4372586Y1325862D01*
X4389138Y1342414D01*
X4400842Y1362686D01*
X4406633Y1384300D01*
D02*
G37*
G36*
X4305300D02*
X4229367D01*
X4235158Y1362686D01*
X4246862Y1342414D01*
X4263414Y1325862D01*
X4283686Y1314158D01*
X4305300Y1308367D01*
Y1384300D01*
D02*
G37*
G36*
X3123933Y1358900D02*
X3048000D01*
Y1282967D01*
X3069614Y1288758D01*
X3089886Y1300462D01*
X3106438Y1317014D01*
X3118142Y1337286D01*
X3123933Y1358900D01*
D02*
G37*
G36*
X3022600D02*
X2946667D01*
X2952458Y1337286D01*
X2964162Y1317014D01*
X2980714Y1300462D01*
X3000986Y1288758D01*
X3022600Y1282967D01*
Y1358900D01*
D02*
G37*
G36*
X2477176Y1320800D02*
X2476500D01*
Y1231900D01*
X2565400D01*
Y1232576D01*
X2558476Y1258416D01*
X2545100Y1281584D01*
X2526184Y1300500D01*
X2503016Y1313876D01*
X2477176Y1320800D01*
D02*
G37*
G36*
X2451100D02*
X2450424D01*
X2424584Y1313876D01*
X2401416Y1300500D01*
X2382500Y1281584D01*
X2369124Y1258416D01*
X2362200Y1232576D01*
Y1231900D01*
X2451100D01*
Y1320800D01*
D02*
G37*
G36*
X2565400Y1206500D02*
X2476500D01*
Y1117600D01*
X2477176D01*
X2503016Y1124524D01*
X2526184Y1137900D01*
X2545100Y1156816D01*
X2558476Y1179984D01*
X2565400Y1205824D01*
Y1206500D01*
D02*
G37*
G36*
X2451100D02*
X2362200D01*
Y1205824D01*
X2369124Y1179984D01*
X2382500Y1156816D01*
X2401416Y1137900D01*
X2424584Y1124524D01*
X2450424Y1117600D01*
X2451100D01*
Y1206500D01*
D02*
G37*
G36*
X4678489Y1117900D02*
X4652711D01*
X4627812Y1111228D01*
X4605488Y1098340D01*
X4587261Y1080112D01*
X4574372Y1057788D01*
X4567700Y1032889D01*
Y1007112D01*
X4574372Y982212D01*
X4587261Y959888D01*
X4605488Y941661D01*
X4627812Y928772D01*
X4652711Y922100D01*
X4678489D01*
X4703388Y928772D01*
X4725712Y941661D01*
X4743939Y959888D01*
X4756828Y982212D01*
X4763500Y1007112D01*
Y1032889D01*
X4756828Y1057788D01*
X4743939Y1080112D01*
X4725712Y1098340D01*
X4703388Y1111228D01*
X4678489Y1117900D01*
D02*
G37*
G36*
X2477176Y1066800D02*
X2450424D01*
X2424584Y1059876D01*
X2401416Y1046500D01*
X2382500Y1027584D01*
X2369124Y1004416D01*
X2362200Y978576D01*
Y951824D01*
X2369124Y925984D01*
X2382500Y902816D01*
X2401416Y883900D01*
X2424584Y870524D01*
X2450424Y863600D01*
X2477176D01*
X2503016Y870524D01*
X2526184Y883900D01*
X2545100Y902816D01*
X2558476Y925984D01*
X2565400Y951824D01*
Y978576D01*
X2558476Y1004416D01*
X2545100Y1027584D01*
X2526184Y1046500D01*
X2503016Y1059876D01*
X2477176Y1066800D01*
D02*
G37*
%LPD*%
D29*
X4768400Y4089400D02*
D03*
D30*
X4665600Y1520000D02*
D03*
Y1020000D02*
D03*
D31*
X592200Y2997200D02*
D03*
D32*
X1592200D02*
D03*
D33*
X2463800Y3530600D02*
D03*
Y3784600D02*
D03*
Y965200D02*
D03*
Y1219200D02*
D03*
D34*
X1371600Y5003800D02*
D03*
Y2413000D02*
D03*
D35*
X2133600Y4622800D02*
D03*
Y4114800D02*
D03*
Y2032000D02*
D03*
Y1524000D02*
D03*
D36*
X4826170Y5586824D02*
D03*
X228770Y5612224D02*
D03*
X4826170Y252824D02*
D03*
X254170D02*
D03*
D37*
X3835400Y2870200D02*
D03*
X2540000Y1981200D02*
D03*
X3479800Y4826000D02*
D03*
X3683000D02*
D03*
X3886200D02*
D03*
Y4622800D02*
D03*
X3683000D02*
D03*
X3479800D02*
D03*
X4318000Y1397000D02*
D03*
X3035300Y1371600D02*
D03*
X2946400Y4318000D02*
D03*
X2438400D02*
D03*
D38*
X4318000Y380967D02*
Y313256D01*
X4284144Y279400D01*
X4250289Y313256D01*
Y380967D01*
X4148721Y279400D02*
X4216433D01*
X4148721Y347111D01*
Y364039D01*
X4165649Y380967D01*
X4199505D01*
X4216433Y364039D01*
X4114866Y279400D02*
X4081010D01*
X4097938D01*
Y380967D01*
X4114866Y364039D01*
%TF.MD5,11acfaf91587e5bc4153ae39d0b45c31*%
M02*
