%TF.GenerationSoftware,Altium Limited,Altium Designer,24.7.2 (38)*%
G04 Layer_Color=128*
%FSLAX45Y45*%
%MOMM*%
%TF.SameCoordinates,425E0F67-3F04-4F15-B929-D04D496562EE*%
%TF.FilePolarity,Positive*%
%TF.FileFunction,Drillmap*%
%TF.Part,Single*%
G01*
G75*
%TA.AperFunction,NonConductor*%
%ADD44C,0.12700*%
D44*
X4679400Y4089400D02*
X4857400D01*
X4768400Y4000400D02*
Y4178400D01*
X4623100Y1520000D02*
X4708100D01*
X4665600Y1477500D02*
Y1562500D01*
X4623100Y1020000D02*
X4708100D01*
X4665600Y977500D02*
Y1062500D01*
X4905600Y1620000D02*
X4965600D01*
X4935600Y1590000D02*
Y1650000D01*
X4905600Y920000D02*
X4965600D01*
X4935600Y890000D02*
Y950000D01*
X554700Y2997200D02*
X629700D01*
X592200Y2959700D02*
Y3034700D01*
X1554700Y2997200D02*
X1629700D01*
X1592200Y2959700D02*
Y3034700D01*
X2413000Y3530600D02*
X2514600D01*
X2463800Y3479800D02*
Y3581400D01*
X2413000Y3784600D02*
X2514600D01*
X2463800Y3733800D02*
Y3835400D01*
X2413000Y965200D02*
X2514600D01*
X2463800Y914400D02*
Y1016000D01*
X2413000Y1219200D02*
X2514600D01*
X2463800Y1168400D02*
Y1270000D01*
X1221600Y5003800D02*
X1521600D01*
X1371600Y4853800D02*
Y5153800D01*
X2078600Y4622800D02*
X2188600D01*
X2133600Y4567800D02*
Y4677800D01*
X2078600Y4114800D02*
X2188600D01*
X2133600Y4059800D02*
Y4169800D01*
X1221600Y2413000D02*
X1521600D01*
X1371600Y2263000D02*
Y2563000D01*
X2078600Y2032000D02*
X2188600D01*
X2133600Y1977000D02*
Y2087000D01*
X2078600Y1524000D02*
X2188600D01*
X2133600Y1469000D02*
Y1579000D01*
X4666170Y5586824D02*
X4986170D01*
X4826170Y5426824D02*
Y5746824D01*
X68770Y5612224D02*
X388770D01*
X228770Y5452224D02*
Y5772224D01*
X4666170Y252824D02*
X4986170D01*
X4826170Y92824D02*
Y412824D01*
X94170Y252824D02*
X414170D01*
X254170Y92824D02*
Y412824D01*
X3799840Y2870200D02*
X3870960D01*
X3835400Y2834640D02*
Y2905760D01*
X2504440Y1981200D02*
X2575560D01*
X2540000Y1945640D02*
Y2016760D01*
X3444240Y4826000D02*
X3515360D01*
X3479800Y4790440D02*
Y4861560D01*
X3647440Y4826000D02*
X3718560D01*
X3683000Y4790440D02*
Y4861560D01*
X3850640Y4826000D02*
X3921760D01*
X3886200Y4790440D02*
Y4861560D01*
X3850640Y4622800D02*
X3921760D01*
X3886200Y4587240D02*
Y4658360D01*
X3647440Y4622800D02*
X3718560D01*
X3683000Y4587240D02*
Y4658360D01*
X3444240Y4622800D02*
X3515360D01*
X3479800Y4587240D02*
Y4658360D01*
X4282440Y1397000D02*
X4353560D01*
X4318000Y1361440D02*
Y1432560D01*
X2999740Y1371600D02*
X3070860D01*
X3035300Y1336040D02*
Y1407160D01*
X2910840Y4318000D02*
X2981960D01*
X2946400Y4282440D02*
Y4353560D01*
X2402840Y4318000D02*
X2473960D01*
X2438400Y4282440D02*
Y4353560D01*
%TF.MD5,edf19c5436e302889e9e9e06097e1dbd*%
M02*
