%TF.GenerationSoftware,Altium Limited,Altium Designer,24.7.2 (38)*%
G04 Layer_Color=8421504*
%FSLAX45Y45*%
%MOMM*%
%TF.SameCoordinates,425E0F67-3F04-4F15-B929-D04D496562EE*%
%TF.FilePolarity,Positive*%
%TF.FileFunction,Paste,Top*%
%TF.Part,Single*%
G01*
G75*
%TA.AperFunction,NonConductor*%
%ADD10C,0.50000*%
%TA.AperFunction,SMDPad,CuDef*%
%ADD11R,2.00000X2.00000*%
%ADD12R,1.40000X0.95000*%
%ADD13C,4.00000*%
%ADD14R,4.06000X3.30000*%
%ADD15R,6.35000X3.81000*%
%ADD16R,6.35000X3.30000*%
%ADD17R,0.60000X0.80000*%
%TA.AperFunction,ConnectorPad*%
%ADD18R,1.35000X0.40000*%
%ADD19R,1.90000X1.50000*%
%TA.AperFunction,SMDPad,CuDef*%
%ADD20R,1.35000X1.00000*%
%ADD21R,1.40822X1.00650*%
%ADD22R,1.36213X1.05814*%
%ADD23R,0.70000X1.30000*%
%ADD24R,0.63500X1.27000*%
G36*
X5030600Y910000D02*
X4840600D01*
Y1040000D01*
X5030600D01*
Y910000D01*
D02*
G37*
G36*
X4980603Y860002D02*
X4890600Y860000D01*
Y910000D01*
X4980603D01*
Y860002D01*
D02*
G37*
G36*
X4980600Y1630001D02*
X4890597D01*
Y1679998D01*
X4980600Y1680000D01*
Y1630001D01*
D02*
G37*
G36*
X5030600Y1500000D02*
X4840600D01*
Y1630000D01*
X5030600D01*
Y1500000D01*
D02*
G37*
D10*
X5005600Y910000D02*
G03*
X5005600Y910000I-25000J0D01*
G01*
X4915600D02*
G03*
X4915600Y910000I-25000J0D01*
G01*
X5005600Y1630000D02*
G03*
X5005600Y1630000I-25000J0D01*
G01*
X4915600D02*
G03*
X4915600Y1630000I-25000J0D01*
G01*
D11*
X4149700Y1701800D02*
D03*
X3749700D02*
D03*
X4137000Y1143000D02*
D03*
X3737000D02*
D03*
D12*
X3340100Y3064300D02*
D03*
Y2879300D02*
D03*
X3035300Y1794300D02*
D03*
Y1609300D02*
D03*
D13*
X1371600Y3733800D02*
D03*
Y1143000D02*
D03*
D14*
X3478400Y4165400D02*
D03*
D15*
X4392400Y3446400D02*
D03*
D16*
Y4775400D02*
D03*
D17*
X3476100Y5384800D02*
D03*
X3331100D02*
D03*
X3476100Y5232400D02*
D03*
X3331100D02*
D03*
D18*
X4665600Y1140000D02*
D03*
Y1205000D02*
D03*
Y1270000D02*
D03*
Y1335000D02*
D03*
Y1400000D02*
D03*
D19*
X4935600Y1170000D02*
D03*
Y1370000D02*
D03*
D20*
X2997200Y2922200D02*
D03*
Y3072200D02*
D03*
D21*
X2438400Y4756314D02*
D03*
Y4946486D02*
D03*
D22*
X2946400Y4738301D02*
D03*
Y4913699D02*
D03*
D23*
X2800600Y2634600D02*
D03*
X2990600D02*
D03*
Y2394600D02*
D03*
X2895600D02*
D03*
X2800600D02*
D03*
D24*
X2755900Y5486400D02*
D03*
X2667000D02*
D03*
X2578100D02*
D03*
%TF.MD5,55bb4d16ac352db9575100bdf3d7743b*%
M02*
