%TF.GenerationSoftware,Altium Limited,Altium Designer,24.7.2 (38)*%
G04 Layer_Color=2752767*
%FSLAX45Y45*%
%MOMM*%
%TF.SameCoordinates,425E0F67-3F04-4F15-B929-D04D496562EE*%
%TF.FilePolarity,Positive*%
%TF.FileFunction,Drawing*%
%TF.Part,Single*%
G01*
G75*
%TA.AperFunction,NonConductor*%
%ADD44C,0.12700*%
%ADD71C,0.16933*%
D44*
X4717600Y4089400D02*
X4768400Y4140200D01*
X4819200Y4089400D01*
X4768400Y4038600D01*
X4717600Y4089400D01*
X4935600Y1569200D02*
X4884800Y1670800D01*
X4986400D01*
X4935600Y1569200D01*
Y869200D02*
X4884800Y970800D01*
X4986400D01*
X4935600Y869200D01*
X541400Y2946400D02*
X566800D01*
X592200Y2971800D01*
X617600Y2946400D01*
X643000D01*
Y2971800D01*
X617600Y2997200D01*
X643000Y3022600D01*
Y3048000D01*
X617600D01*
X592200Y3022600D01*
X566800Y3048000D01*
X541400D01*
Y3022600D01*
X566800Y2997200D01*
X541400Y2971800D01*
Y2946400D01*
X1541400D02*
X1566800D01*
X1592200Y2971800D01*
X1617600Y2946400D01*
X1643000D01*
Y2971800D01*
X1617600Y2997200D01*
X1643000Y3022600D01*
Y3048000D01*
X1617600D01*
X1592200Y3022600D01*
X1566800Y3048000D01*
X1541400D01*
Y3022600D01*
X1566800Y2997200D01*
X1541400Y2971800D01*
Y2946400D01*
X2438400Y3505200D02*
Y3479800D01*
X2489200D01*
Y3505200D01*
X2514600D01*
Y3556000D01*
X2489200D01*
Y3581400D01*
X2438400D01*
Y3556000D01*
X2413000D01*
Y3505200D01*
X2438400D01*
Y3759200D02*
Y3733800D01*
X2489200D01*
Y3759200D01*
X2514600D01*
Y3810000D01*
X2489200D01*
Y3835400D01*
X2438400D01*
Y3810000D01*
X2413000D01*
Y3759200D01*
X2438400D01*
Y939800D02*
Y914400D01*
X2489200D01*
Y939800D01*
X2514600D01*
Y990600D01*
X2489200D01*
Y1016000D01*
X2438400D01*
Y990600D01*
X2413000D01*
Y939800D01*
X2438400D01*
Y1193800D02*
Y1168400D01*
X2489200D01*
Y1193800D01*
X2514600D01*
Y1244600D01*
X2489200D01*
Y1270000D01*
X2438400D01*
Y1244600D01*
X2413000D01*
Y1193800D01*
X2438400D01*
X1371600Y4953000D02*
X1397000Y4978400D01*
X1422400D01*
X1397000Y5003800D01*
X1422400Y5029200D01*
X1397000D01*
X1371600Y5054600D01*
X1346200Y5029200D01*
X1320800D01*
X1346200Y5003800D01*
X1320800Y4978400D01*
X1346200D01*
X1371600Y4953000D01*
X2082800Y4572000D02*
X2108200Y4622800D01*
X2082800Y4673600D01*
X2133600Y4648200D01*
X2184400Y4673600D01*
X2159000Y4622800D01*
X2184400Y4572000D01*
X2133600Y4597400D01*
X2082800Y4572000D01*
Y4064000D02*
X2108200Y4114800D01*
X2082800Y4165600D01*
X2133600Y4140200D01*
X2184400Y4165600D01*
X2159000Y4114800D01*
X2184400Y4064000D01*
X2133600Y4089400D01*
X2082800Y4064000D01*
X1371600Y2362200D02*
X1397000Y2387600D01*
X1422400D01*
X1397000Y2413000D01*
X1422400Y2438400D01*
X1397000D01*
X1371600Y2463800D01*
X1346200Y2438400D01*
X1320800D01*
X1346200Y2413000D01*
X1320800Y2387600D01*
X1346200D01*
X1371600Y2362200D01*
X2082800Y1981200D02*
X2108200Y2032000D01*
X2082800Y2082800D01*
X2133600Y2057400D01*
X2184400Y2082800D01*
X2159000Y2032000D01*
X2184400Y1981200D01*
X2133600Y2006600D01*
X2082800Y1981200D01*
Y1473200D02*
X2108200Y1524000D01*
X2082800Y1574800D01*
X2133600Y1549400D01*
X2184400Y1574800D01*
X2159000Y1524000D01*
X2184400Y1473200D01*
X2133600Y1498600D01*
X2082800Y1473200D01*
X4775370Y5536024D02*
Y5637624D01*
X4876970D01*
Y5536024D01*
X4775370D01*
X4795690Y5556344D02*
Y5617304D01*
X4856650D01*
Y5556344D01*
X4795690D01*
X177970Y5561424D02*
Y5663024D01*
X279570D01*
Y5561424D01*
X177970D01*
X198290Y5581744D02*
Y5642704D01*
X259250D01*
Y5581744D01*
X198290D01*
X4775370Y202024D02*
Y303624D01*
X4876970D01*
Y202024D01*
X4775370D01*
X4795690Y222344D02*
Y283304D01*
X4856650D01*
Y222344D01*
X4795690D01*
X203370Y202024D02*
Y303624D01*
X304970D01*
Y202024D01*
X203370D01*
X223690Y222344D02*
Y283304D01*
X284650D01*
Y222344D01*
X223690D01*
X3784600Y2819400D02*
Y2921000D01*
X3886200D01*
Y2819400D01*
X3784600D01*
X2489200Y1930400D02*
Y2032000D01*
X2590800D01*
Y1930400D01*
X2489200D01*
X3429000Y4775200D02*
Y4876800D01*
X3530600D01*
Y4775200D01*
X3429000D01*
X3632200D02*
Y4876800D01*
X3733800D01*
Y4775200D01*
X3632200D01*
X3835400D02*
Y4876800D01*
X3937000D01*
Y4775200D01*
X3835400D01*
Y4572000D02*
Y4673600D01*
X3937000D01*
Y4572000D01*
X3835400D01*
X3632200D02*
Y4673600D01*
X3733800D01*
Y4572000D01*
X3632200D01*
X3429000D02*
Y4673600D01*
X3530600D01*
Y4572000D01*
X3429000D01*
X4267200Y1346200D02*
Y1447800D01*
X4368800D01*
Y1346200D01*
X4267200D01*
X2984500Y1320800D02*
Y1422400D01*
X3086100D01*
Y1320800D01*
X2984500D01*
X2895600Y4267200D02*
Y4368800D01*
X2997200D01*
Y4267200D01*
X2895600D01*
X2387600D02*
Y4368800D01*
X2489200D01*
Y4267200D01*
X2387600D01*
D71*
X4716400Y1520000D02*
G03*
X4716400Y1520000I-50800J0D01*
G01*
Y1020000D02*
G03*
X4716400Y1020000I-50800J0D01*
G01*
%TF.MD5,4b2bcf13a88b217a3f95ef88677066be*%
M02*
