%TF.GenerationSoftware,Altium Limited,Altium Designer,24.7.2 (38)*%
G04 Layer_Physical_Order=1*
G04 Layer_Color=255*
%FSLAX45Y45*%
%MOMM*%
%TF.SameCoordinates,425E0F67-3F04-4F15-B929-D04D496562EE*%
%TF.FilePolarity,Positive*%
%TF.FileFunction,Copper,L1,Top,Signal*%
%TF.Part,Single*%
G01*
G75*
%TA.AperFunction,NonConductor*%
%ADD10C,0.50000*%
%TA.AperFunction,SMDPad,CuDef*%
%ADD11R,2.00000X2.00000*%
%ADD12R,1.40000X0.95000*%
%ADD13C,4.00000*%
%ADD14R,4.06000X3.30000*%
%ADD15R,6.35000X3.81000*%
%ADD16R,6.35000X3.30000*%
%ADD17R,0.60000X0.80000*%
%TA.AperFunction,ConnectorPad*%
%ADD18R,1.35000X0.40000*%
%ADD19R,1.90000X1.50000*%
%TA.AperFunction,SMDPad,CuDef*%
%ADD20R,1.35000X1.00000*%
%ADD21R,1.40822X1.00650*%
%ADD22R,1.36213X1.05814*%
%ADD23R,0.70000X1.30000*%
%ADD24R,0.63500X1.27000*%
%TA.AperFunction,Conductor*%
%ADD25C,0.25400*%
%ADD26C,0.38100*%
%ADD27C,1.27000*%
%ADD28C,1.01600*%
%TA.AperFunction,ComponentPad*%
%ADD29C,1.78000*%
%ADD30C,1.45000*%
%ADD31R,1.25000X1.25000*%
%ADD32C,1.25000*%
%ADD33C,1.52400*%
%ADD34C,4.00000*%
%ADD35C,1.65000*%
%ADD36C,1.00000*%
%TA.AperFunction,ViaPad*%
%ADD37C,1.27000*%
G36*
X5030600Y1040000D02*
X4840600D01*
Y910000D01*
X5030600D01*
Y1040000D01*
D02*
G37*
G36*
X4980603Y910000D02*
X4890600D01*
Y860000D01*
X4980603Y860002D01*
Y910000D01*
D02*
G37*
G36*
X4890597Y1630001D02*
X4980600D01*
Y1680000D01*
X4890597Y1679998D01*
Y1630001D01*
D02*
G37*
G36*
X4840600Y1500000D02*
X5030600D01*
Y1630000D01*
X4840600D01*
Y1500000D01*
D02*
G37*
G36*
X4800600Y4470400D02*
X3784600D01*
Y3657600D01*
X3327400D01*
Y3975000D01*
X3465700D01*
Y4165400D01*
Y4355800D01*
X3327400D01*
Y4898063D01*
X3407737Y4978400D01*
X4049259D01*
X4049500Y4965800D01*
X4049500Y4965700D01*
Y4788100D01*
X4392400D01*
X4735300D01*
Y4965700D01*
X4735300Y4965800D01*
X4735541Y4978400D01*
X4800600D01*
Y4470400D01*
D02*
G37*
%LPC*%
G36*
X3898900Y4914633D02*
Y4838700D01*
X3974833D01*
X3969042Y4860314D01*
X3957338Y4880586D01*
X3940786Y4897138D01*
X3920514Y4908842D01*
X3898900Y4914633D01*
D02*
G37*
G36*
X3873500D02*
X3851886Y4908842D01*
X3831614Y4897138D01*
X3815062Y4880586D01*
X3803358Y4860314D01*
X3797567Y4838700D01*
X3873500D01*
Y4914633D01*
D02*
G37*
G36*
X3695700D02*
Y4838700D01*
X3771633D01*
X3765842Y4860314D01*
X3754138Y4880586D01*
X3737586Y4897138D01*
X3717314Y4908842D01*
X3695700Y4914633D01*
D02*
G37*
G36*
X3670300D02*
X3648686Y4908842D01*
X3628414Y4897138D01*
X3611862Y4880586D01*
X3600158Y4860314D01*
X3594367Y4838700D01*
X3670300D01*
Y4914633D01*
D02*
G37*
G36*
X3492500D02*
Y4838700D01*
X3568433D01*
X3562642Y4860314D01*
X3550938Y4880586D01*
X3534386Y4897138D01*
X3514114Y4908842D01*
X3492500Y4914633D01*
D02*
G37*
G36*
X3467100D02*
X3445486Y4908842D01*
X3425214Y4897138D01*
X3408662Y4880586D01*
X3396958Y4860314D01*
X3391167Y4838700D01*
X3467100D01*
Y4914633D01*
D02*
G37*
G36*
X3974833Y4813300D02*
X3898900D01*
Y4737367D01*
X3920514Y4743158D01*
X3940786Y4754862D01*
X3957338Y4771414D01*
X3969042Y4791686D01*
X3974833Y4813300D01*
D02*
G37*
G36*
X3873500D02*
X3797567D01*
X3803358Y4791686D01*
X3815062Y4771414D01*
X3831614Y4754862D01*
X3851886Y4743158D01*
X3873500Y4737367D01*
Y4813300D01*
D02*
G37*
G36*
X3771633D02*
X3695700D01*
Y4737367D01*
X3717314Y4743158D01*
X3737586Y4754862D01*
X3754138Y4771414D01*
X3765842Y4791686D01*
X3771633Y4813300D01*
D02*
G37*
G36*
X3670300D02*
X3594367D01*
X3600158Y4791686D01*
X3611862Y4771414D01*
X3628414Y4754862D01*
X3648686Y4743158D01*
X3670300Y4737367D01*
Y4813300D01*
D02*
G37*
G36*
X3568433D02*
X3492500D01*
Y4737367D01*
X3514114Y4743158D01*
X3534386Y4754862D01*
X3550938Y4771414D01*
X3562642Y4791686D01*
X3568433Y4813300D01*
D02*
G37*
G36*
X3467100D02*
X3391167D01*
X3396958Y4791686D01*
X3408662Y4771414D01*
X3425214Y4754862D01*
X3445486Y4743158D01*
X3467100Y4737367D01*
Y4813300D01*
D02*
G37*
G36*
X3898900Y4711433D02*
Y4635500D01*
X3974833D01*
X3969042Y4657114D01*
X3957338Y4677386D01*
X3940786Y4693938D01*
X3920514Y4705642D01*
X3898900Y4711433D01*
D02*
G37*
G36*
X3873500D02*
X3851886Y4705642D01*
X3831614Y4693938D01*
X3815062Y4677386D01*
X3803358Y4657114D01*
X3797567Y4635500D01*
X3873500D01*
Y4711433D01*
D02*
G37*
G36*
X3695700D02*
Y4635500D01*
X3771633D01*
X3765842Y4657114D01*
X3754138Y4677386D01*
X3737586Y4693938D01*
X3717314Y4705642D01*
X3695700Y4711433D01*
D02*
G37*
G36*
X3670300D02*
X3648686Y4705642D01*
X3628414Y4693938D01*
X3611862Y4677386D01*
X3600158Y4657114D01*
X3594367Y4635500D01*
X3670300D01*
Y4711433D01*
D02*
G37*
G36*
X3492500D02*
Y4635500D01*
X3568433D01*
X3562642Y4657114D01*
X3550938Y4677386D01*
X3534386Y4693938D01*
X3514114Y4705642D01*
X3492500Y4711433D01*
D02*
G37*
G36*
X3467100D02*
X3445486Y4705642D01*
X3425214Y4693938D01*
X3408662Y4677386D01*
X3396958Y4657114D01*
X3391167Y4635500D01*
X3467100D01*
Y4711433D01*
D02*
G37*
G36*
X4735300Y4762700D02*
X4405100D01*
Y4585000D01*
X4735300D01*
Y4762700D01*
D02*
G37*
G36*
X4379700D02*
X4049500D01*
Y4585000D01*
X4379700D01*
Y4762700D01*
D02*
G37*
G36*
X3974833Y4610100D02*
X3898900D01*
Y4534167D01*
X3920514Y4539958D01*
X3940786Y4551662D01*
X3957338Y4568214D01*
X3969042Y4588486D01*
X3974833Y4610100D01*
D02*
G37*
G36*
X3873500D02*
X3797567D01*
X3803358Y4588486D01*
X3815062Y4568214D01*
X3831614Y4551662D01*
X3851886Y4539958D01*
X3873500Y4534167D01*
Y4610100D01*
D02*
G37*
G36*
X3771633D02*
X3695700D01*
Y4534167D01*
X3717314Y4539958D01*
X3737586Y4551662D01*
X3754138Y4568214D01*
X3765842Y4588486D01*
X3771633Y4610100D01*
D02*
G37*
G36*
X3670300D02*
X3594367D01*
X3600158Y4588486D01*
X3611862Y4568214D01*
X3628414Y4551662D01*
X3648686Y4539958D01*
X3670300Y4534167D01*
Y4610100D01*
D02*
G37*
G36*
X3568433D02*
X3492500D01*
Y4534167D01*
X3514114Y4539958D01*
X3534386Y4551662D01*
X3550938Y4568214D01*
X3562642Y4588486D01*
X3568433Y4610100D01*
D02*
G37*
G36*
X3467100D02*
X3391167D01*
X3396958Y4588486D01*
X3408662Y4568214D01*
X3425214Y4551662D01*
X3445486Y4539958D01*
X3467100Y4534167D01*
Y4610100D01*
D02*
G37*
G36*
X3706800Y4355800D02*
X3491100D01*
Y4178100D01*
X3706800D01*
Y4355800D01*
D02*
G37*
G36*
Y4152700D02*
X3491100D01*
Y3975000D01*
X3706800D01*
Y4152700D01*
D02*
G37*
%LPD*%
D10*
X5005600Y910000D02*
G03*
X5005600Y910000I-25000J0D01*
G01*
X4915600D02*
G03*
X4915600Y910000I-25000J0D01*
G01*
X5005600Y1630000D02*
G03*
X5005600Y1630000I-25000J0D01*
G01*
X4915600D02*
G03*
X4915600Y1630000I-25000J0D01*
G01*
D11*
X4149700Y1701800D02*
D03*
X3749700D02*
D03*
X4137000Y1143000D02*
D03*
X3737000D02*
D03*
D12*
X3340100Y3064300D02*
D03*
Y2879300D02*
D03*
X3035300Y1794300D02*
D03*
Y1609300D02*
D03*
D13*
X1371600Y3733800D02*
D03*
Y1143000D02*
D03*
D14*
X3478400Y4165400D02*
D03*
D15*
X4392400Y3446400D02*
D03*
D16*
Y4775400D02*
D03*
D17*
X3476100Y5384800D02*
D03*
X3331100D02*
D03*
X3476100Y5232400D02*
D03*
X3331100D02*
D03*
D18*
X4665600Y1140000D02*
D03*
Y1205000D02*
D03*
Y1270000D02*
D03*
Y1335000D02*
D03*
Y1400000D02*
D03*
D19*
X4935600Y1170000D02*
D03*
Y1370000D02*
D03*
D20*
X2997200Y2922200D02*
D03*
Y3072200D02*
D03*
D21*
X2438400Y4756314D02*
D03*
Y4946486D02*
D03*
D22*
X2946400Y4738301D02*
D03*
Y4913699D02*
D03*
D23*
X2800600Y2634600D02*
D03*
X2990600D02*
D03*
Y2394600D02*
D03*
X2895600D02*
D03*
X2800600D02*
D03*
D24*
X2755900Y5486400D02*
D03*
X2667000D02*
D03*
X2578100D02*
D03*
D25*
X3476100Y5101700D02*
Y5232400D01*
X3331100Y5109100D02*
Y5232400D01*
X3098800Y4876800D02*
X3331100Y5109100D01*
Y5232400D02*
Y5384800D01*
X2768600Y5289550D02*
Y5486400D01*
X2590800Y5289550D02*
Y5486400D01*
X3190590Y3064300D02*
Y4816190D01*
X3476100Y5101700D01*
X3098800Y3120940D02*
Y4876800D01*
X3190590Y3064300D02*
X3216700D01*
X3200400Y3048000D02*
X3216700Y3064300D01*
X3185521Y2819400D02*
X3200400Y2804521D01*
X3216700Y3064300D02*
X3340100D01*
X3005879Y2819400D02*
X3185521D01*
X3200400Y2834279D01*
Y3048000D01*
X2991000Y2804521D02*
X3005879Y2819400D01*
X2800600Y2634600D02*
Y2990600D01*
X2794000Y2997200D02*
X2800600Y2990600D01*
X1592200Y2997200D02*
X2794000D01*
X2800600Y2990600D02*
Y3295400D01*
X3031060Y3106061D02*
X3083921D01*
X2997200Y3072200D02*
X3031060Y3106061D01*
X3083921D02*
X3098800Y3120940D01*
X3476100Y5232400D02*
Y5384800D01*
X2991000Y2635000D02*
Y2804521D01*
X2990600Y2634600D02*
X2991000Y2635000D01*
X3200400Y1320800D02*
Y2804521D01*
Y1320800D02*
X3378200Y1143000D01*
X3737000D01*
X2844691Y2524809D02*
X2893546Y2573664D01*
Y2836046D01*
X2979700Y2922200D01*
X2800600Y2394600D02*
Y2495800D01*
X2829609Y2524809D01*
X2844691D01*
X2979700Y2922200D02*
X2997200D01*
X2946400Y4913699D02*
Y5111750D01*
X2768600Y5289550D02*
X2946400Y5111750D01*
X2686050Y3409950D02*
X2800600Y3295400D01*
X2686050Y3409950D02*
Y5467350D01*
X2667000Y5486400D02*
X2686050Y5467350D01*
X2438400Y5137150D02*
X2590800Y5289550D01*
X2438400Y4946486D02*
Y5137150D01*
X4140000Y1140000D02*
X4665600D01*
X4137000Y1143000D02*
X4140000Y1140000D01*
X3737000Y1143000D02*
X3749700Y1155700D01*
Y1701800D01*
D26*
X3340100Y2879300D02*
X3344650Y2874750D01*
X3830850D02*
X3835400Y2870200D01*
X3344650Y2874750D02*
X3830850D01*
X2692400Y1981200D02*
X2880050Y2168850D01*
Y2379050D02*
X2895600Y2394600D01*
X2880050Y2168850D02*
Y2379050D01*
X2540000Y1981200D02*
X2692400D01*
X4318000Y1397000D02*
X4321000Y1400000D01*
X4665600D01*
X3035300Y1371600D02*
Y1609300D01*
X2946400Y4318000D02*
Y4738301D01*
X2438400Y4318000D02*
Y4756314D01*
D27*
X4149700Y1701800D02*
Y2651100D01*
X4392400Y2893800D01*
Y3446400D01*
X2463800Y965200D02*
X2668805D01*
X1905000D02*
X2463800D01*
X2743200Y1600200D02*
X2971800Y1828800D01*
X2668805Y965200D02*
X2743200Y1039595D01*
Y1600200D01*
X3035300Y1862667D02*
Y2387600D01*
X2971800Y1828800D02*
X3001433D01*
X3035300Y1794300D02*
Y1828800D01*
X3001433D02*
X3035300Y1862667D01*
X1397000Y1117600D02*
X1752600D01*
X1371600Y1143000D02*
X1397000Y1117600D01*
X1752600D02*
X1905000Y965200D01*
X937995Y1143000D02*
X1371600D01*
X937995Y3733800D02*
X1371600D01*
X863600Y1217395D02*
Y3659405D01*
Y1217395D02*
X937995Y1143000D01*
X863600Y3659405D02*
X937995Y3733800D01*
X1879600Y3530600D02*
X2463800D01*
X1664484Y3745716D02*
X1879600Y3530600D01*
X1383516Y3745716D02*
X1664484D01*
D28*
X1371600Y3733800D02*
X1383516Y3745716D01*
D29*
X4768400Y4089400D02*
D03*
D30*
X4665600Y1520000D02*
D03*
Y1020000D02*
D03*
D31*
X592200Y2997200D02*
D03*
D32*
X1592200D02*
D03*
D33*
X2463800Y3530600D02*
D03*
Y3784600D02*
D03*
Y965200D02*
D03*
Y1219200D02*
D03*
D34*
X1371600Y5003800D02*
D03*
Y2413000D02*
D03*
D35*
X2133600Y4622800D02*
D03*
Y4114800D02*
D03*
Y2032000D02*
D03*
Y1524000D02*
D03*
D36*
X4826170Y5586824D02*
D03*
X228770Y5612224D02*
D03*
X4826170Y252824D02*
D03*
X254170D02*
D03*
D37*
X3835400Y2870200D02*
D03*
X2540000Y1981200D02*
D03*
X3479800Y4826000D02*
D03*
X3683000D02*
D03*
X3886200D02*
D03*
Y4622800D02*
D03*
X3683000D02*
D03*
X3479800D02*
D03*
X4318000Y1397000D02*
D03*
X3035300Y1371600D02*
D03*
X2946400Y4318000D02*
D03*
X2438400D02*
D03*
%TF.MD5,08c315d1a48d9acf1d7c315bfb9d1085*%
M02*
